# xmcd CD database file
# Copyright (C) 1993-1998 Ti Kan
#
# Track frame offsets:
# 183
# 11160
# 23373
# 33810
# 45880
# 55088
# 67098
# 77198
# 87303
# 96413
# 105580
# 116265
#
# Disc length: 1676 seconds
#
# Revision: 0
# Processed by: cddbd v1.4b41PL1 Copyright (c) Steve Scherf et al.
# Submitted via: inCDius 1.1b8
#
DISCID=87068a0c
DTITLE=Barbara George - Golden Classics - I Know (You Don't Love Me No More)
DYEAR=1900
DGENRE=
TTITLE0=I Know (You Don't Love Me No More)
TTITLE1=Whip O Will
TTITLE2=Since I Fell For You
TTITLE3=Don't Ask Me No Questions
TTITLE4=Without Love
TTITLE5=Talk About Love
TTITLE6=Love
TTITLE7=I Never Knew
TTITLE8=Hurted
TTITLE9=I'm In A Strain
TTITLE10=Honest I Do
TTITLE11=Let's Steal Away
EXTD=
EXTT0=
EXTT1=
EXTT2=
EXTT3=
EXTT4=
EXTT5=
EXTT6=
EXTT7=
EXTT8=
EXTT9=
EXTT10=
EXTT11=
PLAYORDER=
